<svg width="24" height="24" viewBox="0 0 24 24" fill="none" xmlns="http://www.w3.org/2000/svg">
<g clip-path="url(#clip0_13_5666)">
<path d="M5.31087 5.02406C6.23662 4.07459 7.34169 3.31839 8.56199 2.7993C9.78229 2.28022 11.0935 2.0086 12.4196 2.0002C13.7457 1.9918 15.0603 2.24678 16.2871 2.75036C17.5138 3.25393 18.6284 3.99608 19.5661 4.93374C20.5038 5.8714 21.246 6.98592 21.7496 8.21264C22.2532 9.43935 22.5082 10.7539 22.4998 12.0799C22.4914 13.4059 22.2198 14.7171 21.7007 15.9373C21.1816 17.1575 20.4253 18.2626 19.4758 19.1883C17.5866 21.0128 15.0563 22.0224 12.4299 21.9996C9.80347 21.9768 7.2911 20.9234 5.43389 19.0663C3.57667 17.2091 2.5232 14.6969 2.50038 12.0706C2.47756 9.44435 3.4872 6.91418 5.31187 5.02507M13.3965 9.10275C13.3965 8.8371 13.291 8.58232 13.1031 8.39448C12.9153 8.20664 12.6605 8.10111 12.3948 8.10111C12.1292 8.10111 11.8744 8.20664 11.6865 8.39448C11.4987 8.58232 11.3931 8.8371 11.3931 9.10275V11.106H9.38975C9.12409 11.106 8.8693 11.2116 8.68145 11.3994C8.4936 11.5872 8.38806 11.842 8.38806 12.1077C8.38806 12.3733 8.4936 12.6281 8.68145 12.8159C8.8693 13.0038 9.12409 13.1093 9.38975 13.1093H11.3931V15.1126C11.3931 15.3782 11.4987 15.633 11.6865 15.8209C11.8744 16.0087 12.1292 16.1142 12.3948 16.1142C12.6605 16.1142 12.9153 16.0087 13.1031 15.8209C13.291 15.633 13.3965 15.3782 13.3965 15.1126V13.1093H15.3999C15.6656 13.1093 15.9204 13.0038 16.1082 12.8159C16.2961 12.6281 16.4016 12.3733 16.4016 12.1077C16.4016 11.842 16.2961 11.5872 16.1082 11.3994C15.9204 11.2116 15.6656 11.106 15.3999 11.106H13.3965V9.10275Z" fill="#1356BF"/>
</g>
<defs>
<clipPath id="clip0_13_5666">
<rect width="24" height="24" fill="white"/>
</clipPath>
</defs>
</svg>
